<svg width="34" height="34" viewBox="0 0 34 34" fill="none" xmlns="http://www.w3.org/2000/svg">
<path d="M17 34C26.3888 34 34 26.3888 34 17C34 7.61113 26.3888 -3.05176e-05 17 -3.05176e-05C7.61116 -3.05176e-05 0 7.61113 0 17C0 26.3888 7.61116 34 17 34Z" fill="#D72130"/>
<path fill-rule="evenodd" clip-rule="evenodd" d="M11.2303 10.5336C11.4229 10.6081 11.55 10.7934 11.55 11V12.93L19.9599 12.93V13.93L11.05 13.93C10.7738 13.93 10.55 13.7061 10.55 13.43V12.2933L7.67573 15.455L10.55 18.6166V17.4799C10.55 17.2038 10.7738 16.9799 11.05 16.9799L19.9599 16.9799V17.9799L11.55 17.9799L11.55 19.9099C11.55 20.1165 11.4229 20.3018 11.2303 20.3763C11.0376 20.4508 10.8189 20.3991 10.68 20.2463L6.63003 15.7913C6.45666 15.6006 6.45666 15.3093 6.63003 15.1186L10.68 10.6637C10.8189 10.5108 11.0376 10.4591 11.2303 10.5336Z" fill="white"/>
<path fill-rule="evenodd" clip-rule="evenodd" d="M21.8049 24.4263C21.6122 24.3518 21.4852 24.1665 21.4852 23.9599L21.4852 22.0299L13.0753 22.0299L13.0753 21.0299L21.9852 21.0299C22.2613 21.0299 22.4852 21.2538 22.4852 21.5299L22.4852 22.6666L25.3594 19.5049L22.4852 16.3433L22.4852 17.48C22.4852 17.7561 22.2613 17.98 21.9852 17.98L13.0753 17.98L13.0753 16.98L21.4852 16.98L21.4852 15.05C21.4852 14.8434 21.6122 14.6581 21.8049 14.5836C21.9976 14.5091 22.2162 14.5608 22.3552 14.7136L26.4051 19.1686C26.5785 19.3593 26.5785 19.6506 26.4051 19.8413L22.3552 24.2962C22.2162 24.4491 21.9976 24.5008 21.8049 24.4263Z" fill="white"/>
</svg>
