<svg width="30" height="30" viewBox="0 0 30 30" fill="none" xmlns="http://www.w3.org/2000/svg">
<path fill-rule="evenodd" clip-rule="evenodd" d="M12.4141 15.5172L17.3897 10.3448L12.4141 15.5172L17.3897 20.6897L12.4141 15.5172Z" stroke="#979797" stroke-linejoin="round"/>
<path fill-rule="evenodd" clip-rule="evenodd" d="M0 15C0 23.2843 6.71573 30 15 30C23.2843 30 30 23.2843 30 15C30 6.71573 23.2843 0 15 0C6.71573 0 0 6.71573 0 15ZM28.9655 15C28.9655 22.7129 22.7129 28.9655 15 28.9655C7.28706 28.9655 1.03448 22.7129 1.03448 15C1.03448 7.28706 7.28706 1.03448 15 1.03448C22.7129 1.03448 28.9655 7.28706 28.9655 15Z" fill="#979797"/>
</svg>
