<svg width="12" height="12" viewBox="0 0 12 12" fill="none" xmlns="http://www.w3.org/2000/svg">
<path d="M11.8536 0.146433C11.6583 -0.0488109 11.3418 -0.0488109 11.1465 0.146433L0.146432 11.1465C-0.0488108 11.3418 -0.0488108 11.6583 0.146432 11.8536C0.341675 12.0488 0.658231 12.0488 0.853474 11.8536L11.8536 0.853476C12.0488 0.658232 12.0488 0.341676 11.8536 0.146433Z" fill="#F8F8F8"/>
<path d="M0.853474 0.146433C0.658231 -0.0488109 0.341675 -0.0488109 0.146432 0.146433C-0.0488108 0.341676 -0.0488108 0.658233 0.146432 0.853476L11.1465 11.8536C11.3418 12.0488 11.6583 12.0488 11.8536 11.8536C12.0488 11.6583 12.0488 11.3418 11.8536 11.1465L0.853474 0.146433Z" fill="#F8F8F8"/>
</svg>
