<svg width="24" height="24" viewBox="0 0 24 24" fill="none" xmlns="http://www.w3.org/2000/svg">
<path d="M13.1283 19.9999C12.6888 19.9999 12.3134 19.76 12.0986 19.3458C12.0676 19.2847 12.0514 19.2141 12.0514 19.1435V17.0353C11.3944 14.8377 10.7665 13.4064 9.52344 12.5993C9.41676 12.5287 9.35059 12.397 9.35059 12.2558V5.86691C9.35059 5.09909 10.545 4.54145 11.0521 4.54145H17.2828C17.5887 4.54145 17.8878 4.72262 18.1464 5.0685C18.4826 5.51633 18.6953 6.16181 18.7014 6.71631C19.2078 7.14845 19.4441 7.9053 19.4009 8.96959C19.9296 9.61428 19.9168 10.5688 19.7324 11.1656C19.9586 11.5413 19.9998 12.1954 19.9998 12.6197C19.9998 13.8448 18.5481 14.7365 17.931 14.7365H15.085C15.5536 17.1106 15.006 18.44 14.6178 19.0345C14.2215 19.6392 13.6658 19.9999 13.1283 19.9999ZM12.7252 19.0196C12.8427 19.1788 13.0048 19.2156 13.1283 19.2156C13.4544 19.2156 13.8109 18.9702 14.077 18.5615C14.4159 18.0408 14.8994 16.8133 14.3234 14.4503C14.2944 14.3342 14.3146 14.2048 14.3788 14.1067C14.4436 14.0087 14.5422 13.953 14.6475 13.953H17.9269C18.297 13.953 19.3212 13.2887 19.3212 12.6189C19.3212 12.0542 19.2321 11.7201 19.1815 11.6237C19.1004 11.5821 19.0349 11.5076 19.0012 11.4103C18.9586 11.2935 18.9722 11.1578 19.0322 11.0503C19.1869 10.7727 19.3077 9.89036 18.8337 9.43076C18.7493 9.34919 18.7048 9.22449 18.7136 9.09743C18.779 8.13118 18.6075 7.53041 18.1889 7.26845C18.0647 7.19002 17.9951 7.03159 18.0147 6.86924C18.0579 6.49357 17.8905 5.92966 17.6319 5.58378C17.5083 5.41986 17.3794 5.32575 17.2781 5.32575H11.0487C10.726 5.32575 10.0879 5.71005 10.019 5.90456L10.0231 12.0323C11.3451 12.9828 12.0352 14.5899 12.7056 16.8447C12.7198 16.8863 12.7232 16.9271 12.7232 16.9718V19.018H12.7245L12.7252 19.0196Z" fill="white" stroke="#7F8899"/>
<path d="M8.30796 13.4754H5.04281C4.46789 13.4754 4 12.9428 4 12.2884V5.18637C4 4.53194 4.46789 4 5.04281 4H8.30796C8.88287 4 9.35077 4.53194 9.35077 5.18637V12.2877C9.35077 12.9421 8.88287 13.4754 8.30796 13.4754ZM5.04281 4.67744C4.79548 4.67744 4.59453 4.90619 4.59453 5.18705V12.2884C4.59453 12.5699 4.79548 12.7987 5.04281 12.7987H8.30796C8.55529 12.7987 8.75624 12.5699 8.75624 12.2884V5.18637C8.75624 4.90551 8.55529 4.67677 8.30796 4.67677L5.04281 4.67744Z" fill="white" stroke="#7F8899"/>
</svg>
