<svg width="24" height="24" viewBox="0 0 24 24" fill="none" xmlns="http://www.w3.org/2000/svg">
<path d="M13.9617 10.169L13.9604 10.167C13.8165 9.94716 13.777 9.6736 13.8384 9.42841L14.3234 9.54974L13.8376 9.43134C14.3868 7.17802 13.909 6.09701 13.6579 5.7112C13.4953 5.4614 13.332 5.34856 13.2232 5.30604V7.02822C13.2232 7.09498 13.2188 7.19358 13.1828 7.30495C12.5458 9.44561 11.8569 11.1442 10.5229 12.2156L10.5192 17.9126C10.5635 17.9469 10.6216 17.9861 10.6887 18.0248C10.7726 18.0732 10.8588 18.1143 10.9339 18.1419C11.0034 18.1674 11.0402 18.1729 11.0477 18.174C11.0491 18.1742 11.0495 18.1743 11.0487 18.1743H17.183C17.197 18.1596 17.2136 18.1404 17.232 18.116C17.3184 18.0002 17.4015 17.8295 17.4572 17.6421C17.514 17.4514 17.5293 17.2879 17.5181 17.1887C17.4792 16.8607 17.6144 16.5029 17.922 16.3087L17.9237 16.3077C18.0801 16.2098 18.2794 15.8914 18.2147 14.9364C18.1971 14.6785 18.2847 14.4047 18.486 14.21C18.5922 14.1068 18.6613 13.9218 18.669 13.6757C18.6726 13.5592 18.6614 13.4465 18.6427 13.3528C18.6335 13.3064 18.623 13.2677 18.6131 13.2381C18.6083 13.2234 18.6039 13.2121 18.6004 13.2039C18.5969 13.1955 18.595 13.1922 18.5954 13.1929L19.0322 12.9497L18.5959 13.1937C18.4687 12.9664 18.4371 12.6811 18.5301 12.4222C18.5775 12.2874 18.6553 12.1665 18.7574 12.0701C18.7635 12.0438 18.7705 12.0105 18.7776 11.9695C18.8009 11.8338 18.8212 11.6377 18.8212 11.3811C18.8212 11.2811 18.7204 11.0764 18.4444 10.8483C18.3221 10.7473 18.1921 10.6649 18.0804 10.61C17.9728 10.5571 17.9207 10.5486 17.9209 10.5472C17.9209 10.547 17.9228 10.547 17.9265 10.547H14.6475C14.356 10.547 14.1085 10.391 13.9617 10.169ZM10.4513 17.853C10.4515 17.8532 10.4518 17.8535 10.4521 17.8538L10.4513 17.853Z" fill="#7F8899" stroke="#7F8899"/>
<path d="M5.09453 18.813C5.09453 18.8165 5.09474 18.8197 5.09508 18.8226L8.25569 18.8232C8.25603 18.8203 8.25624 18.8171 8.25624 18.8136V11.7116C8.25624 11.7078 8.25601 11.7044 8.25563 11.7013H5.09514C5.09476 11.7044 5.09453 11.7078 5.09453 11.7116V18.813ZM5.04281 18.8226H5.04291H5.04281Z" fill="#7F8899" stroke="#7F8899"/>
</svg>
