<svg width="15" height="10" viewBox="0 0 15 10" fill="none" xmlns="http://www.w3.org/2000/svg">
<path fill-rule="evenodd" clip-rule="evenodd" d="M5.62308 5.00003C5.62308 6.03459 6.46367 6.87505 7.49847 6.87505C8.53323 6.87505 9.37386 6.03459 9.37386 5.00003V4.98445C9.17367 5.18756 8.89893 5.31255 8.5924 5.31255C7.98902 5.31255 7.49847 4.82193 7.49847 4.2188C7.49847 3.78452 7.75453 3.40628 8.12047 3.23124C7.92675 3.16255 7.71734 3.12506 7.49847 3.12506C6.46367 3.12502 5.62308 3.96558 5.62308 5.00003ZM14.5812 3.93432C13.4183 2.45633 10.5866 0 7.5015 0C4.41345 0 1.57867 2.45637 0.415687 3.93432C0.153195 4.27188 0.00942632 4.6375 0 5.00003C0.00946073 5.3626 0.153195 5.72823 0.415687 6.06572C1.5787 7.54401 4.41035 10 7.49847 10C10.5866 10 13.4183 7.54401 14.5812 6.06572C14.8467 5.72819 14.9905 5.3626 15 5.00003C14.9905 4.6375 14.8467 4.27188 14.5812 3.93432ZM7.49847 8.12499C5.77328 8.12499 4.37282 6.72498 4.37282 5.00003C4.37282 3.27506 5.77328 1.87501 7.49847 1.87501C9.22362 1.87501 10.6241 3.27506 10.6241 5.00003C10.6241 6.72495 9.22359 8.12499 7.49847 8.12499Z" fill="#D72130"/>
</svg>
