<svg width="29" height="30" viewBox="0 0 29 30" fill="none" xmlns="http://www.w3.org/2000/svg">
<path fill-rule="evenodd" clip-rule="evenodd" d="M12 15.023L16.8097 20.0306L12 15.023L16.8097 10.0153L12 15.023Z" stroke="#C63638" stroke-linejoin="round"/>
<path fill-rule="evenodd" clip-rule="evenodd" d="M0 14.5222C0 6.50182 6.49187 0 14.5 0C22.5081 0 29 6.50182 29 14.5222C29 22.5426 22.5081 29.0444 14.5 29.0444C6.49187 29.0444 0 22.5426 0 14.5222ZM28 14.5222C28 7.05495 21.9558 1.00153 14.5 1.00153C7.04416 1.00153 1 7.05495 1 14.5222C1 21.9895 7.04416 28.0429 14.5 28.0429C21.9558 28.0429 28 21.9895 28 14.5222Z" fill="#C63638"/>
</svg>
