<svg width="29" height="30" viewBox="0 0 29 30" fill="none" xmlns="http://www.w3.org/2000/svg">
<path fill-rule="evenodd" clip-rule="evenodd" d="M12 15.0226L16.8097 10.015L12 15.0226L16.8097 20.0303L12 15.0226Z" stroke="#979797" stroke-linejoin="round"/>
<path fill-rule="evenodd" clip-rule="evenodd" d="M0 14.5222C0 22.5426 6.49187 29.0444 14.5 29.0444C22.5081 29.0444 29 22.5426 29 14.5222C29 6.50182 22.5081 0 14.5 0C6.49187 0 0 6.50182 0 14.5222ZM28 14.5222C28 21.9895 21.9558 28.0429 14.5 28.0429C7.04416 28.0429 1 21.9895 1 14.5222C1 7.05495 7.04416 1.00153 14.5 1.00153C21.9558 1.00153 28 7.05495 28 14.5222Z" fill="#979797"/>
</svg>
