<svg width="34" height="34" viewBox="0 0 34 34" fill="none" xmlns="http://www.w3.org/2000/svg">
<path fill-rule="evenodd" clip-rule="evenodd" d="M17 33C25.8366 33 33 25.8366 33 17C33 8.16344 25.8366 1 17 1C8.16344 1 1 8.16344 1 17C1 25.8366 8.16344 33 17 33Z" stroke="black"/>
<path d="M21 14.996H18.2755V13.3244C18.2755 12.6967 18.7202 12.5503 19.0335 12.5503C19.346 12.5503 20.9562 12.5503 20.9562 12.5503V9.79067L18.3083 9.78101C15.3689 9.78101 14.6999 11.8393 14.6999 13.1564V14.996H13V17.8396H14.6999C14.6999 21.4891 14.6999 25.8863 14.6999 25.8863H18.2755C18.2755 25.8863 18.2755 21.4457 18.2755 17.8396H20.6882L21 14.996Z" fill="black"/>
</svg>
