<svg width="34" height="34" viewBox="0 0 34 34" fill="none" xmlns="http://www.w3.org/2000/svg">
<path fill-rule="evenodd" clip-rule="evenodd" d="M16.7988 33C25.6354 33 32.7988 25.8366 32.7988 17C32.7988 8.16344 25.6354 1 16.7988 1C7.96227 1 0.798828 8.16344 0.798828 17C0.798828 25.8366 7.96227 33 16.7988 33Z" stroke="black"/>
<g clip-path="url(#clip0_4525_5)">
<path fill-rule="evenodd" clip-rule="evenodd" d="M12.448 17.0001C12.448 16.4804 12.5343 15.9822 12.6884 15.5149L9.99215 13.4561C9.46665 14.5229 9.17065 15.7252 9.17065 17.0001C9.17065 18.2739 9.4664 19.4753 9.99103 20.5416L12.6858 18.4787C12.5332 18.0136 12.448 17.5172 12.448 17.0001Z" fill="black"/>
<path fill-rule="evenodd" clip-rule="evenodd" d="M17.1821 12.2727C18.3109 12.2727 19.3306 12.6727 20.1317 13.3273L22.4622 11C21.0421 9.76363 19.2213 9 17.1821 9C14.0161 9 11.2951 10.8105 9.99219 13.456L12.6883 15.5149C13.3096 13.6291 15.0804 12.2727 17.1821 12.2727Z" fill="black"/>
<path fill-rule="evenodd" clip-rule="evenodd" d="M17.1821 21.7275C15.0806 21.7275 13.3097 20.3711 12.6884 18.4854L9.99219 20.5439C11.2951 23.1897 14.0161 25.0002 17.1821 25.0002C19.1361 25.0002 21.0017 24.3064 22.4018 23.0064L19.8426 21.0279C19.1204 21.4827 18.2111 21.7275 17.1821 21.7275Z" fill="black"/>
<path fill-rule="evenodd" clip-rule="evenodd" d="M24.8293 16.9999C24.8293 16.5272 24.7564 16.018 24.6471 15.5454H17.1821V18.6363H21.4791C21.2643 19.6902 20.6795 20.5003 19.8426 21.0275L22.4019 23.006C23.8726 21.641 24.8293 19.6075 24.8293 16.9999Z" fill="black"/>
</g>
<defs>
<clipPath id="clip0_4525_5">
<rect width="16" height="16" fill="white" transform="translate(9 9)"/>
</clipPath>
</defs>
</svg>
