<svg width="27" height="27" viewBox="0 0 27 27" fill="none" xmlns="http://www.w3.org/2000/svg">
<circle cx="13.4077" cy="13.4077" r="12.5138" stroke="#B2B2B2" stroke-width="1.78769"/>
<path d="M17.1062 13.4077C17.1062 17.0402 16.6107 20.2916 15.8346 22.6039C15.445 23.7646 15.001 24.6396 14.5514 25.2061C14.0944 25.782 13.7327 25.9215 13.5 25.9215C13.2673 25.9215 12.9056 25.782 12.4486 25.2061C11.999 24.6396 11.555 23.7646 11.1654 22.6039C10.3893 20.2916 9.89384 17.0402 9.89384 13.4077C9.89384 9.77509 10.3893 6.52368 11.1654 4.21142C11.555 3.05069 11.999 2.17576 12.4486 1.60925C12.9056 1.03334 13.2673 0.893844 13.5 0.893844C13.7327 0.893844 14.0944 1.03334 14.5514 1.60925C15.001 2.17576 15.445 3.05069 15.8346 4.21142C16.6107 6.52368 17.1062 9.77509 17.1062 13.4077Z" stroke="#B2B2B2" stroke-width="1.78769"/>
<path d="M0.000511118 13.8546L26.369 13.8546" stroke="#B2B2B2" stroke-width="1.78769"/>
</svg>
