<svg width="28" height="24" viewBox="0 0 28 24" fill="none" xmlns="http://www.w3.org/2000/svg">
<path d="M17.437 10.5344C20.0558 10.5344 22.1788 8.40004 22.1788 5.76719C22.1788 3.13434 20.0558 1 17.437 1C14.8183 1 12.6953 3.13434 12.6953 5.76719C12.6953 8.40004 14.8183 10.5344 17.437 10.5344Z" stroke="#B2B2B2" stroke-width="1.78769" stroke-linecap="round" stroke-linejoin="round"/>
<path d="M26.9201 22.4523V20.0687C26.9201 18.8044 26.4205 17.5918 25.5312 16.6978C24.642 15.8038 23.4359 15.3015 22.1783 15.3015H12.6949C11.4373 15.3015 10.2312 15.8038 9.34195 16.6978C8.4527 17.5918 7.95313 18.8044 7.95312 20.0687V22.4523" stroke="#B2B2B2" stroke-width="1.78769"/>
<path d="M20.8363 22.4523V20.0687C20.8363 18.8044 20.3367 17.5918 19.4474 16.6978C18.5582 15.8038 17.3521 15.3015 16.0945 15.3015H6.61105C5.35347 15.3015 4.14739 15.8038 3.25814 16.6978C2.36889 17.5918 1.86932 18.8044 1.86932 20.0687V22.4523" fill="white"/>
<path d="M1.86932 22.4523V20.0687C1.86932 18.8044 2.36889 17.5918 3.25814 16.6978C4.14739 15.8038 5.35347 15.3015 6.61105 15.3015H16.0945C17.3521 15.3015 18.5582 15.8038 19.4474 16.6978C20.3367 17.5918 20.8363 18.8044 20.8363 20.0687V22.4523H1" stroke="#B2B2B2" stroke-width="1.78769"/>
<path d="M11.3511 10.5344C13.9699 10.5344 16.0928 8.40004 16.0928 5.76719C16.0928 3.13434 13.9699 1 11.3511 1C8.73232 1 6.60938 3.13434 6.60938 5.76719C6.60938 8.40004 8.73232 10.5344 11.3511 10.5344Z" fill="white" stroke="#B2B2B2" stroke-width="1.78769" stroke-linecap="round" stroke-linejoin="round"/>
</svg>
