<svg width="26" height="27" viewBox="0 0 26 27" fill="none" xmlns="http://www.w3.org/2000/svg">
<path fill-rule="evenodd" clip-rule="evenodd" d="M20.1367 3.68213L20.9842 5.25614L5.03053 13.8466L19.6369 21.5555L18.8025 23.1365L1.23047 13.8624L20.1367 3.68213Z" fill="#B2B2B2"/>
<path fill-rule="evenodd" clip-rule="evenodd" d="M22.3449 5.36307C23.3322 5.36307 24.1326 4.56269 24.1326 3.57538C24.1326 2.58806 23.3322 1.78769 22.3449 1.78769C21.3576 1.78769 20.5572 2.58806 20.5572 3.57538C20.5572 4.56269 21.3576 5.36307 22.3449 5.36307ZM22.3449 7.15075C24.3195 7.15075 25.9203 5.55 25.9203 3.57538C25.9203 1.60075 24.3195 0 22.3449 0C20.3703 0 18.7695 1.60075 18.7695 3.57538C18.7695 5.55 20.3703 7.15075 22.3449 7.15075Z" fill="#B2B2B2"/>
<path fill-rule="evenodd" clip-rule="evenodd" d="M21.4543 25.0276C22.4416 25.0276 23.242 24.2272 23.242 23.2399C23.242 22.2526 22.4416 21.4522 21.4543 21.4522C20.467 21.4522 19.6666 22.2526 19.6666 23.2399C19.6666 24.2272 20.467 25.0276 21.4543 25.0276ZM21.4543 26.8153C23.4289 26.8153 25.0297 25.2146 25.0297 23.2399C25.0297 21.2653 23.4289 19.6646 21.4543 19.6646C19.4797 19.6646 17.8789 21.2653 17.8789 23.2399C17.8789 25.2146 19.4797 26.8153 21.4543 26.8153Z" fill="#B2B2B2"/>
<path fill-rule="evenodd" clip-rule="evenodd" d="M3.57538 15.1953C4.56269 15.1953 5.36307 14.395 5.36307 13.4077C5.36307 12.4203 4.56269 11.62 3.57538 11.62C2.58806 11.62 1.78769 12.4203 1.78769 13.4077C1.78769 14.395 2.58806 15.1953 3.57538 15.1953ZM3.57538 16.983C5.55 16.983 7.15075 15.3823 7.15075 13.4077C7.15075 11.433 5.55 9.83228 3.57538 9.83228C1.60075 9.83228 0 11.433 0 13.4077C0 15.3823 1.60075 16.983 3.57538 16.983Z" fill="#B2B2B2"/>
<circle cx="3.57675" cy="13.4076" r="1.78769" fill="white"/>
</svg>
