<svg width="27" height="31" viewBox="0 0 27 31" fill="none" xmlns="http://www.w3.org/2000/svg">
<mask id="path-1-inside-1_8683_1411" fill="white">
<path d="M0 0.353271H26.8153V22.651V30.7593L19.6646 22.651H0V0.353271Z"/>
</mask>
<path d="M0 0.353271V-1.43442L-1.78769 0.353271H0ZM26.8153 0.353271H28.603L26.8153 -1.43442V0.353271ZM0 22.651H-1.78769L0 24.4387V22.651ZM19.6646 22.651L21.0053 21.4686C20.666 21.0838 20.1776 20.8633 19.6646 20.8633V22.651ZM26.8153 30.7593L25.4746 31.9417L28.603 30.7593H26.8153ZM0 2.14096H26.8153V-1.43442H0V2.14096ZM25.0276 0.353271V22.651H28.603V0.353271H25.0276ZM1.78769 22.651V0.353271H-1.78769V22.651H1.78769ZM19.6646 20.8633H0V24.4387H19.6646V20.8633ZM25.0276 22.651V30.7593H28.603V22.651H25.0276ZM28.1561 29.5768L21.0053 21.4686L18.3238 23.8334L25.4746 31.9417L28.1561 29.5768Z" fill="#B2B2B2" mask="url(#path-1-inside-1_8683_1411)"/>
<path fill-rule="evenodd" clip-rule="evenodd" d="M19.4015 7.15137L12.1124 15.4165L8.35547 11.7651L9.51888 10.2261L12.0189 12.6559L18.1374 5.71802L19.4015 7.15137Z" fill="#B2B2B2"/>
</svg>
